<svg width="20" height="12" viewBox="0 0 20 12" fill="none" xmlns="http://www.w3.org/2000/svg">
<path d="M18.8309 7.15625L16.5809 11.0312C16.2371 11.625 15.5809 12 14.8309 12H2.36211C1.76836 12 1.39336 11.375 1.70586 10.875L3.95586 7C4.29961 6.40625 4.95586 6 5.70586 6H18.1746C18.7684 6 19.1434 6.65625 18.8309 7.15625ZM5.70586 5C4.61211 5 3.64336 5.59375 3.11211 6.5L0.95586 10.2188V1.5C0.95586 0.6875 1.61211 0 2.45586 0H7.45586L9.45586 2H14.4559C15.2684 2 15.9559 2.6875 15.9559 3.5V5H5.70586Z" fill="white"/>
</svg>
