<svg width="25" height="14" viewBox="0 0 25 14" fill="none" xmlns="http://www.w3.org/2000/svg">
<path d="M5.9375 6.25781L6.36719 7.70312H4.84375L5.3125 6.25781C5.42969 5.78906 5.58594 4.92969 5.58594 4.92969H5.625C5.625 4.92969 5.78125 5.78906 5.9375 6.25781ZM24.0625 0.75C24.5703 0.75 25 1.17969 25 1.6875V12.3125C25 12.8594 24.5703 13.25 24.0625 13.25H13.125V0.75H24.0625ZM23.125 5.4375V4.8125C23.125 4.57812 22.8906 4.34375 22.6562 4.34375H20.1562V3.71875C20.1562 3.48438 19.9219 3.25 19.6875 3.25H19.0625C18.7891 3.25 18.5938 3.48438 18.5938 3.71875V4.34375H16.0938C15.8203 4.34375 15.625 4.57812 15.625 4.8125V5.4375C15.625 5.71094 15.8203 5.90625 16.0938 5.90625H20.5469C20.3125 6.49219 19.8828 7.03906 19.375 7.625C19.1016 7.35156 18.8672 7.07812 18.6719 6.80469C18.5547 6.60938 18.2812 6.53125 18.0469 6.64844L17.7734 6.84375L17.5391 7C17.3047 7.11719 17.2266 7.42969 17.3828 7.66406C17.6172 7.97656 17.8906 8.32812 18.2031 8.64062C17.8906 8.91406 17.5391 9.14844 17.1875 9.34375C16.9531 9.5 16.875 9.77344 17.0312 10.0078L17.3438 10.5156C17.4609 10.75 17.7344 10.8281 17.9688 10.7109C18.4766 10.3984 18.9453 10.0859 19.375 9.73438C19.8047 10.0859 20.2344 10.3984 20.7422 10.7109C20.9766 10.8281 21.25 10.75 21.4062 10.5156L21.7188 10.0078C21.8359 9.77344 21.7578 9.5 21.5625 9.34375C21.2109 9.14844 20.8594 8.91406 20.5078 8.64062C21.3281 7.78125 21.9141 6.84375 22.1875 5.90625H22.6562C22.8906 5.90625 23.125 5.71094 23.125 5.4375ZM0 1.6875C0 1.17969 0.390625 0.75 0.9375 0.75H11.875V13.25H0.9375C0.390625 13.25 0 12.8594 0 12.3125V1.6875ZM2.26562 10.1641C2.1875 10.4375 2.42188 10.75 2.73438 10.75H3.63281C3.82812 10.75 4.02344 10.6328 4.0625 10.4375L4.41406 9.1875H6.79688L7.14844 10.4375C7.1875 10.6328 7.38281 10.75 7.57812 10.75H8.47656C8.82812 10.75 9.02344 10.4375 8.94531 10.1641L6.67969 3.52344C6.64062 3.36719 6.44531 3.21094 6.25 3.21094H4.96094C4.76562 3.21094 4.60938 3.36719 4.53125 3.52344L2.26562 10.1641Z" fill="#A855F7"/>
</svg>
