<svg width="38" height="20" viewBox="0 0 38 20" fill="none" xmlns="http://www.w3.org/2000/svg">
<path d="M8.90625 8.63672L9.55078 10.8047H7.26562L7.96875 8.63672C8.14453 7.93359 8.37891 6.64453 8.37891 6.64453H8.4375C8.4375 6.64453 8.67188 7.93359 8.90625 8.63672ZM36.0938 0.375C36.8555 0.375 37.5 1.01953 37.5 1.78125V17.7188C37.5 18.5391 36.8555 19.125 36.0938 19.125H19.6875V0.375H36.0938ZM34.6875 7.40625V6.46875C34.6875 6.11719 34.3359 5.76562 33.9844 5.76562H30.2344V4.82812C30.2344 4.47656 29.8828 4.125 29.5312 4.125H28.5938C28.1836 4.125 27.8906 4.47656 27.8906 4.82812V5.76562H24.1406C23.7305 5.76562 23.4375 6.11719 23.4375 6.46875V7.40625C23.4375 7.81641 23.7305 8.10938 24.1406 8.10938H30.8203C30.4688 8.98828 29.8242 9.80859 29.0625 10.6875C28.6523 10.2773 28.3008 9.86719 28.0078 9.45703C27.832 9.16406 27.4219 9.04688 27.0703 9.22266L26.6602 9.51562L26.3086 9.75C25.957 9.92578 25.8398 10.3945 26.0742 10.7461C26.4258 11.2148 26.8359 11.7422 27.3047 12.2109C26.8359 12.6211 26.3086 12.9727 25.7812 13.2656C25.4297 13.5 25.3125 13.9102 25.5469 14.2617L26.0156 15.0234C26.1914 15.375 26.6016 15.4922 26.9531 15.3164C27.7148 14.8477 28.418 14.3789 29.0625 13.8516C29.707 14.3789 30.3516 14.8477 31.1133 15.3164C31.4648 15.4922 31.875 15.375 32.1094 15.0234L32.5781 14.2617C32.7539 13.9102 32.6367 13.5 32.3438 13.2656C31.8164 12.9727 31.2891 12.6211 30.7617 12.2109C31.9922 10.9219 32.8711 9.51562 33.2812 8.10938H33.9844C34.3359 8.10938 34.6875 7.81641 34.6875 7.40625ZM0 1.78125C0 1.01953 0.585938 0.375 1.40625 0.375H17.8125V19.125H1.40625C0.585938 19.125 0 18.5391 0 17.7188V1.78125ZM3.39844 14.4961C3.28125 14.9062 3.63281 15.375 4.10156 15.375H5.44922C5.74219 15.375 6.03516 15.1992 6.09375 14.9062L6.62109 13.0312H10.1953L10.7227 14.9062C10.7812 15.1992 11.0742 15.375 11.3672 15.375H12.7148C13.2422 15.375 13.5352 14.9062 13.418 14.4961L10.0195 4.53516C9.96094 4.30078 9.66797 4.06641 9.375 4.06641H7.44141C7.14844 4.06641 6.91406 4.30078 6.79688 4.53516L3.39844 14.4961Z" fill="white"/>
</svg>
