<svg width="27" height="37" viewBox="0 0 27 37" fill="none" xmlns="http://www.w3.org/2000/svg">
<path d="M15.75 10.0625C15.75 11.0469 16.4531 11.75 17.4375 11.75H27V34.8125C27 35.7969 26.2266 36.5 25.3125 36.5H1.6875C0.703125 36.5 0 35.7969 0 34.8125V2.1875C0 1.27344 0.703125 0.5 1.6875 0.5H15.75V10.0625ZM11.25 28.9062V19.3438C11.25 18.6406 10.3359 18.2188 9.77344 18.7812L7.3125 21.3125H5.34375C4.85156 21.3125 4.5 21.7344 4.5 22.1562V26.0938C4.5 26.5859 4.85156 26.9375 5.34375 26.9375H7.3125L9.77344 29.5391C10.3359 30.0312 11.25 29.6797 11.25 28.9062ZM13.5703 25.6016C11.9531 27.2188 14.4141 29.5391 15.9609 27.9219C17.8594 25.9531 17.8594 22.8594 15.9609 20.8906C14.4141 19.2734 12.0234 21.6641 13.5703 23.2109C14.2031 23.9141 14.2031 24.9688 13.5703 25.6016ZM19.6172 17.375C18.0703 15.7578 15.6094 18.0781 17.1562 19.6953C19.7578 22.3672 19.7578 26.5156 17.1562 29.1172C15.6094 30.7344 18.0703 33.0547 19.6172 31.5078C23.4141 27.5703 23.4141 21.3125 19.6172 17.375ZM27 9.07812V9.5H18V0.5H18.4219C18.8438 0.5 19.2656 0.710938 19.6172 0.992188L26.5078 7.88281C26.7891 8.23438 27 8.65625 27 9.07812Z" fill="#A855F7"/>
</svg>
